<?xml version="1.0" encoding="UTF-8" standalone="no"?>
<!-- Created with Inkscape (http://www.inkscape.org/) -->
<svg id="svg2" xmlns:rdf="http://www.w3.org/1999/02/22-rdf-syntax-ns#" xmlns="http://www.w3.org/2000/svg" xml:space="preserve" height="253.3" viewBox="0 0 336.51801 253.30185" width="336.52" version="1.1" xmlns:cc="http://creativecommons.org/ns#" xmlns:dc="http://purl.org/dc/elements/1.1/"><metadata id="metadata8"><rdf:RDF><cc:Work rdf:about=""><dc:format>image/svg+xml</dc:format><dc:type rdf:resource="http://purl.org/dc/dcmitype/StillImage"/><dc:title/></cc:Work></rdf:RDF></metadata><g id="g10" transform="matrix(1.25 0 0 -1.25 -153.42 503.21)"><g id="g448" transform="translate(174.06 222.93)"><path id="path450" d="m0 0c0.379 0.076 0.936 0.101 1.338 0.101 0.404 0 0.935-0.025 1.34-0.101v-17.248c-0.405-0.076-0.936-0.101-1.34-0.101-0.402 0-0.959 0.025-1.338 0.101v17.248z" fill="#55adb7"/></g><g id="g452" transform="translate(191.11 218.82)"><path id="path454" d="m0 0c0.051 0 0.232-0.009 0.543-0.025 0.312-0.017 0.678-0.088 1.1-0.215 0.42-0.126 0.867-0.324 1.337-0.593 0.473-0.27 0.911-0.657 1.315-1.162s0.736-1.141 0.998-1.907c0.26-0.767 0.391-1.713 0.391-2.841v-6.391h-3.082v6.391c0 0.37-0.034 0.749-0.1 1.136-0.068 0.387-0.195 0.741-0.379 1.061-0.185 0.319-0.447 0.585-0.783 0.795-0.338 0.211-0.783 0.316-1.34 0.316-0.555 0-1.002-0.105-1.338-0.316-0.338-0.21-0.598-0.476-0.783-0.795-0.186-0.32-0.313-0.674-0.379-1.061s-0.102-0.766-0.102-1.136v-6.391h-3.08v6.391c0 1.128 0.129 2.074 0.391 2.841 0.262 0.766 0.594 1.402 0.998 1.907s0.842 0.892 1.313 1.162c0.472 0.269 0.917 0.467 1.339 0.593 0.42 0.127 0.784 0.198 1.086 0.215 0.303 0.016 0.489 0.025 0.555 0.025" fill="#55adb7"/></g><g id="g456" transform="translate(212.78 212.08)"><path id="path458" d="m0 0c0 0.454-0.029 0.904-0.09 1.351-0.058 0.446-0.185 0.85-0.379 1.212-0.193 0.362-0.484 0.653-0.871 0.872-0.387 0.218-0.908 0.328-1.566 0.328-0.623 0-1.123-0.126-1.502-0.379-0.379-0.252-0.67-0.569-0.871-0.947-0.203-0.379-0.338-0.788-0.405-1.225-0.068-0.439-0.101-0.842-0.101-1.212 0-0.371 0.033-0.775 0.101-1.213 0.067-0.438 0.202-0.846 0.405-1.225 0.201-0.378 0.492-0.695 0.871-0.947 0.379-0.253 0.879-0.379 1.502-0.379s1.125 0.126 1.504 0.379c0.379 0.252 0.673 0.569 0.884 0.947 0.209 0.379 0.348 0.787 0.416 1.225 0.067 0.438 0.102 0.842 0.102 1.213m-2.906 6.743c1.062 0 1.963-0.151 2.703-0.454 0.74-0.304 1.351-0.745 1.832-1.326 0.478-0.581 0.828-1.288 1.047-2.122 0.219-0.833 0.33-1.78 0.33-2.841v-5.759c0-0.506-0.031-0.972-0.09-1.402s-0.139-0.829-0.24-1.199c-0.151-0.556-0.399-1.066-0.744-1.529-0.346-0.463-0.787-0.863-1.327-1.2-0.539-0.336-1.179-0.598-1.919-0.782-0.741-0.186-1.592-0.278-2.551-0.278l-3.36 0.025v2.854h2.729c1.144 0 2.019 0.118 2.627 0.354 0.605 0.235 1.047 0.518 1.326 0.846 0.277 0.328 0.438 0.661 0.479 0.998 0.043 0.337 0.064 0.597 0.064 0.782v1.667l0.555 0.733c-0.287-0.708-0.649-1.247-1.086-1.617-0.438-0.37-0.867-0.639-1.287-0.807-0.491-0.186-0.995-0.295-1.516-0.33-1.045 0.018-1.971 0.253-2.779 0.708-0.354 0.202-0.694 0.458-1.024 0.77-0.328 0.312-0.623 0.703-0.883 1.175-0.261 0.471-0.472 1.035-0.632 1.692-0.161 0.656-0.239 1.423-0.239 2.299 0 0.875 0.084 1.642 0.252 2.298 0.168 0.657 0.391 1.225 0.67 1.705 0.278 0.479 0.598 0.88 0.959 1.199 0.362 0.32 0.729 0.581 1.1 0.783 0.875 0.472 1.877 0.724 3.004 0.758" fill="#55adb7"/></g><g id="g460" transform="translate(231.65 213.72)"><path id="path462" d="m0 0c-0.086 0.269-0.189 0.538-0.316 0.808-0.127 0.269-0.299 0.513-0.518 0.732s-0.48 0.392-0.783 0.519c-0.303 0.126-0.656 0.189-1.061 0.189-0.404 0-0.758-0.063-1.06-0.189-0.303-0.127-0.565-0.3-0.783-0.519-0.219-0.219-0.397-0.463-0.532-0.732-0.135-0.27-0.236-0.539-0.302-0.808h5.355zm3.182 0c0.033-0.253 0.062-0.514 0.088-0.783 0.025-0.27 0.039-0.556 0.039-0.859v-0.455h-8.84c0.033-0.286 0.074-0.577 0.125-0.871 0.051-0.295 0.135-0.586 0.254-0.872 0.183-0.437 0.47-0.825 0.857-1.161 0.389-0.337 0.926-0.506 1.617-0.506 0.69 0 1.229 0.169 1.617 0.506 0.387 0.336 0.672 0.724 0.858 1.161h3.283c-0.135-0.589-0.324-1.102-0.568-1.54s-0.514-0.817-0.807-1.137c-0.295-0.32-0.611-0.585-0.947-0.796-0.338-0.21-0.666-0.382-0.987-0.517-0.773-0.303-1.589-0.455-2.449-0.455-1.129 0.017-2.131 0.253-3.006 0.708-0.371 0.201-0.736 0.458-1.099 0.769-0.362 0.312-0.682 0.704-0.959 1.175-0.278 0.472-0.502 1.035-0.67 1.693-0.168 0.656-0.252 1.422-0.252 2.298 0 0.875 0.084 1.642 0.252 2.298 0.168 0.657 0.392 1.226 0.67 1.705 0.277 0.48 0.597 0.88 0.959 1.2 0.363 0.32 0.728 0.581 1.099 0.783 0.875 0.471 1.877 0.723 3.006 0.758 0.926-0.035 1.793-0.228 2.602-0.581 0.336-0.152 0.678-0.35 1.023-0.594 0.344-0.244 0.664-0.547 0.959-0.909 0.295-0.363 0.557-0.791 0.783-1.289 0.227-0.496 0.391-1.073 0.493-1.729" fill="#55adb7"/></g><g id="g464" transform="translate(247.73 218.82)"><path id="path466" d="m0 0c0.051 0 0.232-0.009 0.543-0.025 0.312-0.017 0.678-0.088 1.1-0.215 0.42-0.126 0.867-0.324 1.337-0.593 0.473-0.27 0.911-0.657 1.315-1.162s0.736-1.141 0.998-1.907c0.26-0.767 0.391-1.713 0.391-2.841v-6.391h-3.082v6.391c0 0.37-0.034 0.749-0.1 1.136-0.068 0.387-0.195 0.741-0.379 1.061-0.185 0.319-0.447 0.585-0.783 0.795-0.338 0.211-0.783 0.316-1.34 0.316-0.555 0-1.002-0.105-1.338-0.316-0.338-0.21-0.598-0.476-0.783-0.795-0.186-0.32-0.313-0.674-0.379-1.061s-0.102-0.766-0.102-1.136v-6.391h-3.08v6.391c0 1.128 0.129 2.074 0.391 2.841 0.262 0.766 0.594 1.402 0.998 1.907s0.842 0.892 1.313 1.162c0.472 0.269 0.917 0.467 1.339 0.593 0.42 0.127 0.784 0.198 1.086 0.215 0.303 0.016 0.489 0.025 0.555 0.025" fill="#55adb7"/></g><g id="g468" transform="translate(261.5 222.76)"><path id="path470" d="m0 0c0.303 0.177 0.883 0.303 1.389 0.303 0.455 0 1.111-0.126 1.388-0.303 0.153-0.303 0.227-0.783 0.227-1.137 0-0.353-0.074-0.807-0.227-1.111-0.252-0.201-0.933-0.328-1.388-0.328-0.506 0-1.112 0.127-1.389 0.328-0.152 0.304-0.229 0.758-0.229 1.111 0 0.379 0.077 0.834 0.229 1.137m3.156-17.071c-0.353-0.076-0.834-0.101-1.287-0.101-0.48 0-0.961 0.025-1.314 0.101v9.243c0 0.908-0.278 1.312-1.112 1.312h-0.277c-0.076 0.328-0.125 0.607-0.125 0.935 0 0.303 0.049 0.606 0.125 0.96 0.631 0.075 1.238 0.1 1.592 0.1h0.353c1.262 0 2.045-0.858 2.045-2.247v-10.303z" fill="#55adb7"/></g><g id="g472" transform="translate(281.61 213.72)"><path id="path474" d="m0 0c-0.086 0.269-0.189 0.538-0.316 0.808-0.127 0.269-0.299 0.513-0.518 0.732s-0.48 0.392-0.783 0.519c-0.303 0.126-0.656 0.189-1.061 0.189-0.404 0-0.758-0.063-1.06-0.189-0.303-0.127-0.565-0.3-0.783-0.519-0.219-0.219-0.397-0.463-0.532-0.732-0.135-0.27-0.236-0.539-0.302-0.808h5.355zm3.182 0c0.033-0.253 0.062-0.514 0.088-0.783 0.025-0.27 0.039-0.556 0.039-0.859v-0.455h-8.84c0.033-0.286 0.074-0.577 0.125-0.871 0.051-0.295 0.135-0.586 0.254-0.872 0.183-0.437 0.47-0.825 0.857-1.161 0.389-0.337 0.926-0.506 1.617-0.506 0.69 0 1.229 0.169 1.617 0.506 0.387 0.336 0.672 0.724 0.858 1.161h3.283c-0.135-0.589-0.324-1.102-0.568-1.54s-0.514-0.817-0.807-1.137c-0.295-0.32-0.611-0.585-0.947-0.796-0.338-0.21-0.666-0.382-0.987-0.517-0.773-0.303-1.589-0.455-2.449-0.455-1.129 0.017-2.131 0.253-3.006 0.708-0.371 0.201-0.736 0.458-1.099 0.769-0.362 0.312-0.682 0.704-0.959 1.175-0.278 0.472-0.502 1.035-0.67 1.693-0.168 0.656-0.252 1.422-0.252 2.298 0 0.875 0.084 1.642 0.252 2.298 0.168 0.657 0.392 1.226 0.67 1.705 0.277 0.48 0.597 0.88 0.959 1.2 0.363 0.32 0.728 0.581 1.099 0.783 0.875 0.471 1.877 0.723 3.006 0.758 0.926-0.035 1.793-0.228 2.602-0.581 0.336-0.152 0.678-0.35 1.023-0.594 0.344-0.244 0.664-0.547 0.959-0.909 0.295-0.363 0.557-0.791 0.783-1.289 0.227-0.496 0.391-1.073 0.493-1.729" fill="#55adb7"/></g><g id="g476" transform="translate(292.06 214.75)"><path id="path478" d="m0 0c0 0.875 0.184 1.562 0.555 2.059 0.371 0.496 0.775 0.871 1.213 1.124 0.521 0.302 1.111 0.488 1.767 0.555h3.535v-3.056h-2.373c-0.338 0-0.611-0.059-0.82-0.177-0.211-0.117-0.375-0.244-0.494-0.379-0.135-0.168-0.227-0.354-0.278-0.556v-8.637h-3.105v9.067z" fill="#55adb7"/></g><g id="g480" transform="translate(312.02 215.84)"><path id="path482" d="m0 0c-0.623 0-1.125-0.126-1.504-0.379-0.379-0.252-0.668-0.568-0.871-0.947-0.201-0.379-0.336-0.787-0.404-1.225-0.067-0.438-0.102-0.842-0.102-1.212 0-0.371 0.035-0.775 0.102-1.213 0.068-0.438 0.203-0.845 0.404-1.224 0.203-0.379 0.492-0.696 0.871-0.947 0.379-0.253 0.881-0.379 1.504-0.379s1.123 0.126 1.502 0.379c0.379 0.251 0.67 0.568 0.871 0.947 0.203 0.379 0.338 0.786 0.404 1.224 0.069 0.438 0.102 0.842 0.102 1.213 0 0.37-0.033 0.774-0.102 1.212-0.066 0.438-0.201 0.846-0.404 1.225-0.201 0.379-0.492 0.695-0.871 0.947-0.379 0.253-0.879 0.379-1.502 0.379m-5.986-3.763c0 0.875 0.084 1.642 0.252 2.298 0.168 0.657 0.392 1.226 0.67 1.705 0.277 0.48 0.597 0.88 0.959 1.199 0.363 0.321 0.728 0.582 1.099 0.784 0.875 0.471 1.877 0.723 3.006 0.757 1.111-0.034 2.104-0.286 2.98-0.757 0.37-0.202 0.737-0.463 1.098-0.784 0.361-0.319 0.682-0.719 0.961-1.199 0.277-0.479 0.504-1.048 0.682-1.705 0.175-0.656 0.265-1.423 0.265-2.298 0-0.876-0.09-1.642-0.265-2.299-0.178-0.657-0.405-1.22-0.682-1.692-0.279-0.472-0.6-0.863-0.961-1.175-0.361-0.311-0.728-0.568-1.098-0.769-0.876-0.455-1.869-0.691-2.98-0.708-1.129 0.017-2.131 0.253-3.006 0.708-0.371 0.201-0.736 0.458-1.099 0.769-0.362 0.312-0.682 0.703-0.959 1.175-0.278 0.472-0.502 1.035-0.67 1.692s-0.252 1.423-0.252 2.299" fill="#55adb7"/></g><g id="g484" transform="translate(330.61 213.44)"><path id="path486" d="m0 0c0.234 0 0.559-0.004 0.973-0.013 0.412-0.008 0.853-0.042 1.324-0.1 0.473-0.06 0.947-0.16 1.428-0.304 0.48-0.143 0.914-0.35 1.3-0.618 0.387-0.27 0.704-0.615 0.948-1.036s0.367-0.944 0.367-1.566c0-0.976-0.215-1.756-0.645-2.337-0.429-0.58-0.957-1.022-1.578-1.325-0.625-0.304-1.293-0.497-2.01-0.581-0.714-0.084-1.349-0.127-1.906-0.127-0.101 0-0.32 0.005-0.656 0.013-0.338 0.009-0.729 0.055-1.174 0.14-0.447 0.083-0.918 0.217-1.416 0.403-0.496 0.185-0.951 0.45-1.363 0.796-0.412 0.344-0.754 0.791-1.024 1.339-0.269 0.546-0.404 1.215-0.404 2.007h3.082c0-0.151 0.025-0.333 0.076-0.543 0.051-0.211 0.168-0.417 0.354-0.619 0.185-0.202 0.463-0.375 0.834-0.517 0.369-0.144 0.875-0.224 1.515-0.241 0.791-0.016 1.401 0.017 1.83 0.102 0.43 0.084 0.747 0.197 0.948 0.341 0.203 0.142 0.324 0.29 0.367 0.442 0.041 0.152 0.062 0.294 0.062 0.429 0 0.151-0.025 0.304-0.076 0.455s-0.181 0.29-0.39 0.417c-0.211 0.126-0.539 0.23-0.987 0.315-0.445 0.084-1.064 0.135-1.855 0.152-0.608 0.016-1.213 0.101-1.819 0.253-0.607 0.151-1.154 0.383-1.642 0.694-0.488 0.312-0.883 0.703-1.188 1.175-0.302 0.471-0.453 1.026-0.453 1.667 0 0.707 0.151 1.325 0.453 1.856 0.305 0.531 0.704 0.963 1.202 1.301 0.496 0.336 1.064 0.589 1.705 0.758 0.638 0.168 1.312 0.252 2.019 0.252 0.371 0 0.867-0.042 1.49-0.126 0.623-0.085 1.235-0.278 1.832-0.581 0.598-0.303 1.112-0.749 1.54-1.339 0.429-0.59 0.636-1.389 0.619-2.399h-3.08c0 0.539-0.182 0.963-0.543 1.275-0.364 0.311-1.008 0.468-1.934 0.468-0.689 0-1.246-0.131-1.666-0.392-0.422-0.262-0.631-0.619-0.631-1.073 0-0.439 0.201-0.75 0.606-0.935 0.404-0.185 0.925-0.278 1.566-0.278" fill="#55adb7"/></g><g id="g488" transform="translate(165.31 239.84)"><path id="path490" d="m0 0c0-4.992-3.736-7.487-11.217-7.487l-20.085-0.026c-7.514 0-11.27 3.341-11.27 10.019v15.025c0 6.678 3.339 10.017 10.016 10.017h21.287c7.513 0 11.269-2.503 11.269-7.512h-27.544c-3.342 0-5.012-1.252-5.012-3.759v-12.545c0-2.488 1.67-3.741 5.012-3.755l27.544 0.023z" fill="#154b65"/></g><path id="path492" d="m170.32 267.39h10.02v-35.061h-10.02v35.061z" fill="#154b65"/><g id="g494" transform="translate(195.36 232.33)"><path id="path496" d="m0 0h-10.016v35.061h33.808c7.512 0 11.268-2.92 11.268-8.764v-16.278c0-6.678-3.756-10.019-11.268-10.019h-17.531l-3.754 7.513h17.527c3.339 0 5.008 1.253 5.008 3.758v12.519c0 2.507-1.669 3.759-5.008 3.759h-20.034v-27.549z" fill="#154b65"/></g><g id="g498" transform="translate(280.51 267.39)"><path id="path500" d="m0 0v-35.061h-10.017v13.775h-18.786l-3.756 7.512h22.542v13.774h10.017zm-45.08 0h10.02v-35.061h-10.02v35.061z" fill="#154b65"/></g><g id="g502" transform="translate(313.07 247.35)"><path id="path504" d="m0 0 11.268 16.279c1.668 2.503 4.172 3.755 7.513 3.755h8.765v-35.06h-10.017v23.79l-15.026-23.79h-5.008l-15.028 23.79v-23.79h-10.018v35.06h8.768c3.339 0 5.842-1.252 7.512-3.755l11.271-16.279z" fill="#154b65"/></g><g id="g506" transform="translate(374.42 244.85)"><path id="path508" d="m0 0-6.261 12.521-12.52-25.043h-11.273l17.532 35.06h6.261c4.172 0 7.097-1.669 8.764-5.009l15.028-30.051h-11.267l-2.508 5.01h-11.27l-3.756 7.512h11.27z" fill="#154b65"/></g><g id="g510" transform="translate(291.08 398.93)"><path id="path512" d="m0 0c-4.271 5.522-14.635 4.661-23.148-1.925-1.492-1.154-2.822-2.41-3.99-3.721l13.761-19.717c1.931 0.882 3.858 2.018 5.697 3.441 8.513 6.585 11.951 16.401 7.68 21.922" fill="#a2bb42"/></g><g id="g514" transform="translate(310.84 364.75)"><path id="path516" d="m0 0c0.764 4.684 0.451 7.836 0.451 7.836l-0.277 2.6c-0.277 2.598-1.742 6.649-1.742 6.649-0.704 2.056-2.731 5.924-5.109 8.837-2.377 2.915-6.096 5.754-6.096 5.754 0.603-4.827-2.847-11.569-2.847-11.569-3.896-7.237-12.373-12.903-12.373-12.903-3.364-3.326-41.732-16.389-41.732-16.389-8.021-2.632-15.526-5.601-15.526-5.601-9.265-4.115-13.286-9.011-13.286-9.011-6.388-6.644-8.534-14.463-8.939-21.9-0.405-7.438 4.549-16.506 4.549-16.506 11.338-18.111 29.624-20.478 29.624-20.478 20.596-4.633 36.25 3.836 36.25 3.836-1.688-0.223-3.605-0.324-5.586-0.34-0.017 0-0.037 0-0.055-0.002-0.055 0-0.109 0.001-0.163 0.001-0.164-0.002-0.331 0-0.495-0.001-0.672-0.006-1.351 0.004-2.032 0.028-2.138 0.054-4.262 0.179-6.177 0.329-0.418 0.031-0.821 0.065-1.216 0.099-1.238 0.098-2.462 0.217-3.674 0.36-0.482 0.055-0.913 0.104-1.274 0.147-0.838 0.102-1.32 0.166-1.32 0.166-0.25 0.041-0.494 0.083-0.74 0.127-20.585 3.165-36.302 12.629-34.644 22.792 2.114 12.952 22.498 19.602 44.157 21.383 0.097 0.019 0.196 0.035 0.293 0.053 11.638 1.986 20.166 5.034 22.03 5.686 4.452 1.56 7.771 3.355 7.771 3.355 7.701 3.48 12.765 9.301 12.765 9.301 6.406 7.393 7.413 15.361 7.413 15.361" fill="#55adb7"/></g><g id="g518" transform="translate(269.76 286.59)"><path id="path520" d="m0 0c-21.267 3.752-36.281 14.445-35.718 25.513 0.371 7.219 9.688 15.273 26.526 18.893-21.659-1.781-42.043-8.43-44.157-21.383-1.658-10.163 14.059-19.627 34.644-22.792 0.246-0.043 0.49-0.085 0.74-0.127 0 0 0.482-0.064 1.32-0.166 0.361-0.042 0.792-0.092 1.274-0.147 1.011-0.11 2.266-0.239 3.674-0.36 0.406-0.033 0.805-0.073 1.217-0.099 1.915-0.15 4.038-0.275 6.176-0.329 0.681-0.024 1.36-0.034 2.033-0.027 0.164 0.001 0.331-0.002 0.494 0.001 0.054 0 0.108-0.001 0.163-0.001 0.018 0.002 0.038 0.002 0.055 0.002 1.981 0.015 3.898 0.116 5.586 0.339 0.026 0.011-2.877 0.48-4.027 0.683" fill="#154b65"/></g></g></svg>
