<?xml version="1.0" encoding="UTF-8" standalone="no"?>
<!-- Created with Inkscape (http://www.inkscape.org/) -->
<svg id="svg2" xmlns:rdf="http://www.w3.org/1999/02/22-rdf-syntax-ns#" xmlns="http://www.w3.org/2000/svg" xml:space="preserve" height="153.75" viewBox="0 0 486.88486 153.75351" width="486.88" version="1.1" xmlns:cc="http://creativecommons.org/ns#" xmlns:dc="http://purl.org/dc/elements/1.1/"><metadata id="metadata8"><rdf:RDF><cc:Work rdf:about=""><dc:format>image/svg+xml</dc:format><dc:type rdf:resource="http://purl.org/dc/dcmitype/StillImage"/><dc:title/></cc:Work></rdf:RDF></metadata><g id="g10" transform="matrix(1.25 0 0 -1.25 -249.25 450.35)"><g id="g20" transform="translate(362.26 289.98)"><path id="path22" d="m0 0c0-4.992-3.736-7.486-11.217-7.486l-20.085-0.026c-7.514 0-11.27 3.34-11.27 10.018v15.025c0 6.678 3.339 10.017 10.016 10.017h21.287c7.513 0 11.269-2.503 11.269-7.512h-27.544c-3.342 0-5.012-1.252-5.012-3.759v-12.545c0-2.488 1.67-3.74 5.012-3.755l27.544 0.023z" fill="#154b65"/></g><path id="path24" d="m367.27 317.53h10.02v-35.06h-10.02v35.06z" fill="#154b65"/><g id="g26" transform="translate(392.32 282.47)"><path id="path28" d="m0 0h-10.016v35.06h33.808c7.512 0 11.268-2.92 11.268-8.764v-16.278c0-6.678-3.756-10.018-11.268-10.018h-17.531l-3.754 7.512h17.527c3.339 0 5.008 1.254 5.008 3.759v12.518c0 2.507-1.669 3.759-5.008 3.759h-20.034v-27.548z" fill="#154b65"/></g><g id="g30" transform="translate(477.46 317.53)"><path id="path32" d="m0 0v-35.06h-10.017v13.774h-18.786l-3.756 7.512h22.542v13.774h10.017zm-45.08 0h10.02v-35.06h-10.02v35.06z" fill="#154b65"/></g><g id="g34" transform="translate(510.02 297.5)"><path id="path36" d="m0 0 11.268 16.279c1.668 2.503 4.172 3.755 7.513 3.755h8.765v-35.059h-10.017v23.789l-15.026-23.789h-5.008l-15.028 23.789v-23.789h-10.018v35.059h8.768c3.339 0 5.842-1.252 7.512-3.755l11.271-16.279z" fill="#154b65"/></g><g id="g38" transform="translate(571.38 294.99)"><path id="path40" d="m0 0-6.261 12.521-12.52-25.042h-11.273l17.532 35.059h6.261c4.172 0 7.097-1.669 8.764-5.009l15.028-30.05h-11.267l-2.508 5.009h-11.27l-3.756 7.512h11.27z" fill="#154b65"/></g><g id="g42" transform="translate(368.78 273.08)"><path id="path44" d="m0 0c0.379 0.076 0.935 0.102 1.338 0.102 0.404 0 0.934-0.026 1.339-0.102v-17.248c-0.405-0.076-0.935-0.1-1.339-0.1-0.403 0-0.959 0.024-1.338 0.1v17.248z" fill="#55adb7"/></g><g id="g46" transform="translate(385.83 268.96)"><path id="path48" d="m0 0c0.051 0 0.231-0.01 0.543-0.025 0.311-0.018 0.678-0.088 1.099-0.215s0.867-0.324 1.338-0.594c0.472-0.27 0.91-0.656 1.314-1.162 0.404-0.504 0.736-1.141 0.998-1.906 0.261-0.768 0.392-1.713 0.392-2.842v-6.391h-3.082v6.391c0 0.371-0.035 0.75-0.101 1.137-0.067 0.386-0.194 0.74-0.379 1.06s-0.446 0.586-0.783 0.795c-0.337 0.211-0.783 0.316-1.339 0.316s-1.002-0.105-1.339-0.316c-0.337-0.209-0.598-0.475-0.782-0.795-0.186-0.32-0.313-0.674-0.379-1.06-0.067-0.387-0.102-0.766-0.102-1.137v-6.391h-3.081v6.391c0 1.129 0.13 2.074 0.392 2.842 0.261 0.765 0.594 1.402 0.997 1.906 0.404 0.506 0.842 0.892 1.314 1.162 0.471 0.27 0.917 0.467 1.338 0.594s0.784 0.197 1.086 0.215c0.304 0.015 0.489 0.025 0.556 0.025" fill="#55adb7"/></g><g id="g50" transform="translate(407.5 262.22)"><path id="path52" d="m0 0c0 0.455-0.029 0.904-0.089 1.352-0.058 0.445-0.185 0.849-0.379 1.212-0.193 0.362-0.484 0.653-0.871 0.872-0.388 0.218-0.909 0.328-1.566 0.328-0.623 0-1.123-0.127-1.502-0.379s-0.67-0.569-0.872-0.947c-0.202-0.379-0.337-0.788-0.405-1.225-0.067-0.44-0.1-0.842-0.1-1.213s0.033-0.775 0.1-1.213c0.068-0.437 0.203-0.846 0.405-1.225 0.202-0.378 0.493-0.695 0.872-0.947s0.879-0.379 1.502-0.379 1.124 0.127 1.503 0.379 0.673 0.569 0.884 0.947c0.21 0.379 0.349 0.788 0.416 1.225 0.068 0.438 0.102 0.842 0.102 1.213m-2.905 6.744c1.061 0 1.962-0.152 2.703-0.455 0.74-0.303 1.351-0.744 1.831-1.326 0.479-0.58 0.829-1.287 1.048-2.121s0.329-1.781 0.329-2.842v-5.758c0-0.506-0.03-0.972-0.089-1.402-0.06-0.43-0.139-0.83-0.24-1.199-0.152-0.557-0.4-1.067-0.745-1.53s-0.787-0.863-1.326-1.199-1.179-0.598-1.919-0.783c-0.742-0.186-1.592-0.277-2.551-0.277l-3.36 0.025v2.853h2.728c1.144 0 2.02 0.118 2.627 0.354 0.606 0.236 1.048 0.518 1.326 0.846 0.277 0.328 0.438 0.662 0.48 0.998 0.042 0.338 0.063 0.597 0.063 0.783v1.666l0.556 0.734c-0.287-0.709-0.649-1.248-1.086-1.617-0.439-0.371-0.868-0.64-1.288-0.808-0.49-0.186-0.995-0.295-1.516-0.329-1.044 0.018-1.971 0.252-2.778 0.707-0.354 0.202-0.695 0.459-1.024 0.77-0.328 0.312-0.623 0.703-0.884 1.176-0.26 0.47-0.471 1.035-0.631 1.691-0.161 0.656-0.24 1.424-0.24 2.299s0.084 1.643 0.252 2.299c0.169 0.656 0.392 1.224 0.67 1.705 0.278 0.478 0.598 0.879 0.96 1.199s0.728 0.58 1.099 0.783c0.875 0.471 1.877 0.723 3.005 0.758" fill="#55adb7"/></g><g id="g54" transform="translate(426.36 263.86)"><path id="path56" d="m0 0c-0.085 0.268-0.189 0.537-0.315 0.807-0.127 0.269-0.3 0.513-0.519 0.732s-0.479 0.393-0.782 0.52c-0.304 0.125-0.657 0.189-1.062 0.189-0.403 0-0.758-0.064-1.06-0.189-0.303-0.127-0.565-0.301-0.783-0.52-0.219-0.219-0.396-0.463-0.531-0.732-0.135-0.27-0.236-0.539-0.302-0.807h5.354zm3.183 0c0.033-0.254 0.062-0.514 0.088-0.783 0.025-0.27 0.038-0.557 0.038-0.86v-0.455h-8.84c0.033-0.285 0.075-0.576 0.126-0.871s0.134-0.586 0.253-0.871c0.184-0.437 0.47-0.826 0.858-1.162s0.926-0.506 1.616-0.506c0.691 0 1.23 0.17 1.617 0.506s0.673 0.725 0.859 1.162h3.283c-0.135-0.59-0.324-1.103-0.568-1.541-0.244-0.437-0.514-0.816-0.808-1.137-0.295-0.32-0.61-0.584-0.947-0.795-0.337-0.21-0.666-0.382-0.986-0.517-0.774-0.303-1.59-0.455-2.45-0.455-1.128 0.017-2.13 0.252-3.005 0.707-0.371 0.201-0.737 0.459-1.099 0.769-0.362 0.313-0.682 0.704-0.959 1.176-0.279 0.471-0.502 1.035-0.67 1.692-0.168 0.656-0.252 1.423-0.252 2.298s0.084 1.643 0.252 2.299c0.168 0.657 0.391 1.225 0.67 1.705 0.277 0.479 0.597 0.879 0.959 1.2 0.362 0.32 0.728 0.58 1.099 0.783 0.875 0.47 1.877 0.722 3.005 0.758 0.926-0.036 1.794-0.229 2.602-0.582 0.337-0.151 0.678-0.35 1.023-0.594s0.665-0.547 0.96-0.908c0.294-0.364 0.556-0.791 0.782-1.289 0.228-0.497 0.392-1.073 0.494-1.729" fill="#55adb7"/></g><g id="g58" transform="translate(442.45 268.96)"><path id="path60" d="m0 0c0.051 0 0.231-0.01 0.543-0.025 0.311-0.018 0.678-0.088 1.099-0.215s0.867-0.324 1.338-0.594c0.472-0.27 0.91-0.656 1.314-1.162 0.404-0.504 0.736-1.141 0.998-1.906 0.261-0.768 0.392-1.713 0.392-2.842v-6.391h-3.082v6.391c0 0.371-0.035 0.75-0.101 1.137-0.067 0.386-0.194 0.74-0.379 1.06s-0.446 0.586-0.783 0.795c-0.337 0.211-0.783 0.316-1.339 0.316s-1.002-0.105-1.339-0.316c-0.337-0.209-0.598-0.475-0.782-0.795-0.186-0.32-0.313-0.674-0.379-1.06-0.067-0.387-0.102-0.766-0.102-1.137v-6.391h-3.081v6.391c0 1.129 0.13 2.074 0.392 2.842 0.261 0.765 0.594 1.402 0.997 1.906 0.404 0.506 0.842 0.892 1.314 1.162 0.471 0.27 0.917 0.467 1.338 0.594s0.784 0.197 1.086 0.215c0.304 0.015 0.489 0.025 0.556 0.025" fill="#55adb7"/></g><g id="g62" transform="translate(456.22 272.9)"><path id="path64" d="m0 0c0.303 0.176 0.884 0.303 1.389 0.303 0.455 0 1.111-0.127 1.389-0.303 0.152-0.303 0.227-0.783 0.227-1.137 0-0.353-0.075-0.808-0.227-1.111-0.253-0.201-0.934-0.328-1.389-0.328-0.505 0-1.111 0.127-1.389 0.328-0.151 0.303-0.228 0.758-0.228 1.111 0 0.379 0.077 0.834 0.228 1.137m3.157-17.072c-0.353-0.076-0.834-0.1-1.288-0.1-0.48 0-0.96 0.024-1.313 0.1v9.244c0 0.908-0.278 1.312-1.112 1.312h-0.277c-0.076 0.328-0.126 0.606-0.126 0.934 0 0.303 0.05 0.607 0.126 0.961 0.631 0.074 1.237 0.1 1.591 0.1h0.353c1.263 0 2.046-0.858 2.046-2.247v-10.304z" fill="#55adb7"/></g><g id="g66" transform="translate(476.32 263.86)"><path id="path68" d="m0 0c-0.085 0.268-0.189 0.537-0.315 0.807-0.127 0.269-0.3 0.513-0.519 0.732s-0.479 0.393-0.782 0.52c-0.304 0.125-0.657 0.189-1.062 0.189-0.403 0-0.758-0.064-1.06-0.189-0.303-0.127-0.565-0.301-0.783-0.52-0.219-0.219-0.396-0.463-0.531-0.732-0.135-0.27-0.236-0.539-0.302-0.807h5.354zm3.183 0c0.033-0.254 0.062-0.514 0.088-0.783 0.025-0.27 0.038-0.557 0.038-0.86v-0.455h-8.84c0.033-0.285 0.075-0.576 0.126-0.871s0.134-0.586 0.253-0.871c0.184-0.437 0.47-0.826 0.858-1.162s0.926-0.506 1.616-0.506c0.691 0 1.23 0.17 1.617 0.506s0.673 0.725 0.859 1.162h3.283c-0.135-0.59-0.324-1.103-0.568-1.541-0.244-0.437-0.514-0.816-0.808-1.137-0.295-0.32-0.61-0.584-0.947-0.795-0.337-0.21-0.666-0.382-0.986-0.517-0.774-0.303-1.59-0.455-2.45-0.455-1.128 0.017-2.13 0.252-3.005 0.707-0.371 0.201-0.737 0.459-1.099 0.769-0.362 0.313-0.682 0.704-0.959 1.176-0.279 0.471-0.502 1.035-0.67 1.692-0.168 0.656-0.252 1.423-0.252 2.298s0.084 1.643 0.252 2.299c0.168 0.657 0.391 1.225 0.67 1.705 0.277 0.479 0.597 0.879 0.959 1.2 0.362 0.32 0.728 0.58 1.099 0.783 0.875 0.47 1.877 0.722 3.005 0.758 0.926-0.036 1.794-0.229 2.602-0.582 0.337-0.151 0.678-0.35 1.023-0.594s0.665-0.547 0.96-0.908c0.294-0.364 0.556-0.791 0.782-1.289 0.228-0.497 0.392-1.073 0.494-1.729" fill="#55adb7"/></g><g id="g70" transform="translate(486.78 264.9)"><path id="path72" d="m0 0c0 0.875 0.185 1.561 0.556 2.059 0.37 0.496 0.774 0.871 1.212 1.123 0.521 0.302 1.111 0.488 1.768 0.556h3.535v-3.056h-2.374c-0.337 0-0.61-0.059-0.82-0.178-0.211-0.117-0.375-0.244-0.493-0.379-0.135-0.168-0.227-0.354-0.278-0.555v-8.638h-3.106v9.068z" fill="#55adb7"/></g><g id="g74" transform="translate(506.73 265.98)"><path id="path76" d="m0 0c-0.623 0-1.124-0.127-1.503-0.379s-0.669-0.568-0.871-0.947-0.337-0.787-0.404-1.225c-0.068-0.439-0.102-0.842-0.102-1.213s0.034-0.775 0.102-1.213c0.067-0.437 0.202-0.845 0.404-1.224s0.492-0.695 0.871-0.947 0.88-0.379 1.503-0.379 1.124 0.127 1.503 0.379 0.669 0.568 0.871 0.947 0.337 0.787 0.404 1.224c0.068 0.438 0.101 0.842 0.101 1.213s-0.033 0.774-0.101 1.213c-0.067 0.438-0.202 0.846-0.404 1.225s-0.492 0.695-0.871 0.947-0.88 0.379-1.503 0.379m-5.986-3.764c0 0.875 0.084 1.643 0.253 2.299 0.168 0.656 0.391 1.225 0.669 1.705 0.278 0.479 0.597 0.879 0.96 1.199 0.362 0.321 0.728 0.581 1.098 0.784 0.875 0.47 1.878 0.722 3.006 0.757 1.111-0.035 2.104-0.287 2.98-0.757 0.371-0.203 0.737-0.463 1.099-0.784 0.361-0.32 0.682-0.72 0.96-1.199 0.277-0.48 0.505-1.049 0.682-1.705 0.176-0.656 0.265-1.424 0.265-2.299s-0.089-1.642-0.265-2.299c-0.177-0.656-0.405-1.22-0.682-1.691-0.278-0.473-0.599-0.863-0.96-1.176-0.362-0.31-0.728-0.568-1.099-0.769-0.876-0.455-1.869-0.69-2.98-0.707-1.128 0.017-2.131 0.252-3.006 0.707-0.37 0.201-0.736 0.459-1.098 0.769-0.363 0.313-0.682 0.703-0.96 1.176-0.278 0.471-0.501 1.035-0.669 1.691-0.169 0.657-0.253 1.424-0.253 2.299" fill="#55adb7"/></g><g id="g78" transform="translate(525.32 263.58)"><path id="path80" d="m0 0c0.235 0 0.56-0.004 0.973-0.012 0.412-0.009 0.853-0.043 1.325-0.101 0.472-0.059 0.947-0.16 1.428-0.303 0.479-0.143 0.913-0.35 1.3-0.619 0.387-0.27 0.703-0.615 0.948-1.035 0.243-0.422 0.366-0.944 0.366-1.567 0-0.976-0.215-1.756-0.645-2.336-0.429-0.58-0.956-1.023-1.578-1.326-0.624-0.303-1.293-0.496-2.009-0.58-0.715-0.084-1.35-0.127-1.906-0.127-0.101 0-0.32 0.004-0.657 0.012-0.337 0.01-0.729 0.055-1.174 0.14-0.446 0.084-0.918 0.217-1.415 0.403-0.497 0.185-0.951 0.451-1.363 0.797-0.413 0.343-0.754 0.791-1.024 1.338-0.269 0.546-0.404 1.216-0.404 2.007h3.082c0-0.15 0.025-0.332 0.075-0.543 0.051-0.211 0.168-0.416 0.354-0.619 0.185-0.201 0.463-0.375 0.834-0.517 0.37-0.143 0.875-0.223 1.515-0.241 0.791-0.015 1.402 0.018 1.831 0.102s0.746 0.197 0.948 0.342c0.202 0.142 0.323 0.289 0.366 0.441 0.042 0.153 0.062 0.295 0.062 0.43 0 0.15-0.024 0.303-0.075 0.455-0.051 0.15-0.181 0.289-0.391 0.416-0.211 0.127-0.539 0.23-0.986 0.316-0.446 0.084-1.065 0.135-1.856 0.151-0.607 0.017-1.212 0.101-1.819 0.254-0.606 0.15-1.153 0.383-1.641 0.693-0.488 0.313-0.884 0.703-1.188 1.176-0.302 0.471-0.454 1.025-0.454 1.666 0 0.707 0.152 1.326 0.454 1.857 0.304 0.53 0.703 0.963 1.201 1.301 0.496 0.336 1.064 0.588 1.705 0.758 0.639 0.168 1.313 0.252 2.02 0.252 0.37 0 0.867-0.043 1.49-0.127 0.622-0.084 1.234-0.277 1.831-0.58 0.598-0.303 1.112-0.75 1.54-1.34 0.43-0.59 0.636-1.389 0.62-2.398h-3.081c0 0.539-0.182 0.962-0.543 1.275-0.363 0.31-1.007 0.467-1.933 0.467-0.69 0-1.246-0.131-1.667-0.391-0.421-0.262-0.631-0.619-0.631-1.074 0-0.438 0.201-0.75 0.606-0.934 0.404-0.185 0.925-0.279 1.566-0.279" fill="#55adb7"/></g><g id="g82" transform="translate(287.95 356.61)"><path id="path84" d="m0 0c-4.312 5.573-14.769 4.704-23.361-1.942-1.505-1.165-2.847-2.433-4.026-3.755l13.887-19.899c1.948 0.89 3.895 2.037 5.749 3.473 8.592 6.645 12.061 16.551 7.751 22.123" fill="#a2bb42"/></g><g id="g86" transform="translate(307.88 322.12)"><path id="path88" d="m0 0c0.771 4.726 0.455 7.907 0.455 7.907l-0.279 2.623c-0.28 2.623-1.759 6.711-1.759 6.711-0.71 2.074-2.755 5.978-5.155 8.917-2.399 2.943-6.153 5.807-6.153 5.807 0.61-4.871-2.873-11.674-2.873-11.674-3.93-7.304-12.485-13.021-12.485-13.021-3.396-3.358-42.114-16.54-42.114-16.54-8.095-2.656-15.669-5.652-15.669-5.652-9.35-4.152-13.407-9.094-13.407-9.094-6.448-6.705-8.614-14.595-9.022-22.101-0.408-7.505 4.591-16.657 4.591-16.657 11.442-18.278 29.895-20.664 29.895-20.664 20.786-4.677 36.582 3.871 36.582 3.871-1.703-0.226-3.638-0.328-5.636-0.342-0.018 0-0.037 0-0.056-0.003h-0.165c-0.165-0.002-0.334 0-0.499 0-0.679-0.007-1.364 0.004-2.051 0.027-2.158 0.054-4.301 0.18-6.233 0.332-0.423 0.031-0.829 0.067-1.228 0.101-1.249 0.098-2.484 0.218-3.708 0.362-0.485 0.056-0.922 0.106-1.285 0.15-0.846 0.103-1.332 0.167-1.332 0.167-0.252 0.042-0.499 0.083-0.747 0.128-20.773 3.194-36.634 12.746-34.961 23 2.133 13.072 22.704 19.782 44.561 21.58 0.098 0.017 0.198 0.035 0.296 0.052 11.745 2.005 20.351 5.08 22.232 5.739 4.492 1.574 7.843 3.385 7.843 3.385 7.771 3.513 12.882 9.386 12.882 9.386 6.463 7.462 7.48 15.503 7.48 15.503" fill="#55adb7"/></g><g id="g90" transform="translate(266.43 243.24)"><path id="path92" d="m0 0c-21.461 3.786-36.613 14.577-36.044 25.747 0.374 7.285 9.776 15.413 26.768 19.066-21.857-1.797-42.428-8.507-44.561-21.579-1.673-10.255 14.188-19.806 34.961-23 0.248-0.046 0.495-0.087 0.747-0.129 0 0 0.486-0.063 1.332-0.167 0.363-0.043 0.8-0.093 1.285-0.149 1.021-0.111 2.287-0.241 3.708-0.362 0.41-0.034 0.813-0.073 1.228-0.101 1.932-0.152 4.075-0.278 6.233-0.332 0.687-0.023 1.372-0.034 2.051-0.027 0.165 0 0.334-0.002 0.499 0h0.165c0.019 0.003 0.038 0.003 0.056 0.003 1.998 0.014 3.933 0.116 5.636 0.342 0.027 0.009-2.903 0.482-4.064 0.688" fill="#154b65"/></g></g></svg>
